<svg xmlns="http://www.w3.org/2000/svg" width="96" height="96" x="0" y="0" viewBox="0 0 192 192" style="fill:#000"><g fill="none" fill-rule="nonzero" stroke="none" stroke-dashoffset="0" stroke-linecap="butt" stroke-linejoin="miter" stroke-miterlimit="10" stroke-width="1" font-family="none" font-size="none" font-weight="none" text-anchor="none" style="mix-blend-mode:normal"><path fill="none" d="M0,192v-192h192v192z"/><g fill="#fff"><g id="surface1"><path d="M83.25,16c-34.40625,0 -59.25,22.40625 -59.25,72c0,27.1875 14.40625,76 -8,88h18.5c7.1875,-11.1875 6.25,-26.5 6.25,-26.5c0,0 -8.75,-11.09375 -8.75,-17.5c0,-11.1875 8.75,-17.5 8.75,-17.5c0,0 -8,-8.09375 -8,-22.5c0,-12 9.6875,-17.5 14.5,-17.5c17.59375,0 18.25,20.75 18.25,20.75h17c0,0 -0.84375,-23.25 20.75,-23.25c7.1875,0 20,6.4375 20,23.25c0,9.59375 -3.25,15.25 -3.25,15.25c0,0 11.25,5.59375 11.25,16c0,10.40625 -8,18.25 -8,18.25l12.75,29.75h40c0,1.59375 -24,-8.09375 -24,-86.5c0,-5.59375 1.65625,-72 -68.75,-72zM110.25,32c2.09375,0 4.5,0.90625 6.5,2.5c4,3.1875 6.34375,7.0625 4.75,10.25c-1.59375,3.1875 -7,3.1875 -11,0c-4,-3.1875 -7.40625,-7.0625 -5,-10.25c0.8125,-1.59375 2.65625,-2.5 4.75,-2.5zM48.75,87.25c-4,0.8125 -8.75,3.9375 -8.75,12.75c0,8 10.5,15.25 10.5,15.25c0,0 -14.5,6.34375 -14.5,16.75c0,5.59375 6.40625,11.9375 12,16.75c5.59375,4.8125 13.65625,13.75 23.25,13.75c14.40625,0 26.34375,-11.3125 32.75,-14.5c6.40625,-4 19.25,-10.4375 19.25,-19.25c0,-10.40625 -20,-13.5 -20,-13.5c0,0 9.5,-3.34375 9.5,-13.75c0,-7.1875 -4.65625,-12.75 -10.25,-12.75c-8.8125,0 -11.25,7.9375 -11.25,12.75c0,4.8125 2.25,9.75 2.25,9.75c0,0 -9.5,-7.25 -21.5,-7.25c-6.40625,0 -13.5,4 -13.5,4c0,0 0.75,-3.25 0.75,-7.25c0,-4 -2.5,-13.5 -10.5,-13.5zM78,110c1.34375,-0.03125 4.9375,0.8125 6.75,2c1.59375,0.8125 0.8125,4.75 0,4.75c-1.59375,0.8125 -7.25,-4.65625 -7.25,-6.25c-0.1875,-0.1875 0.0625,-0.5 0.5,-0.5zM66.5,110.5c2.40625,0 -0.09375,3.84375 -2.5,6.25c-0.8125,0.8125 -4,-2.25 -4,-2.25c0,-1.59375 3.3125,-4 6.5,-4zM116,128c0,0 -24,24 -44,24c-16.8125,0 -31.25,-18.5 -31.25,-18.5c0,0 16.0625,10.5 31.25,10.5c16.8125,0 44,-16 44,-16z"/></g></g></g></svg>